<svg xmlns="http://www.w3.org/2000/svg" viewBox="0 0 841.9 595.3">
	<svg id="Layer_1" data-name="Layer 1" xmlns="http://www.w3.org/2000/svg" xmlns:xlink="http://www.w3.org/1999/xlink" viewBox="0 0 1000 883.54"><defs><style>.cls-1{fill:url(#linear-gradient);}.cls-2{fill:url(#linear-gradient-2);}.cls-3{fill:url(#linear-gradient-3);}.cls-4{fill:url(#linear-gradient-4);}.cls-5{fill:url(#linear-gradient-5);}</style><linearGradient id="linear-gradient" x1="778.75" y1="367.21" x2="1000" y2="367.21" gradientUnits="userSpaceOnUse"><stop offset="0.25" stop-color="#1e9cd7"/><stop offset="0.75" stop-color="#0075be"/><stop offset="0.99" stop-color="#005b97"/></linearGradient><linearGradient id="linear-gradient-2" x1="0" y1="441.77" x2="351.59" y2="441.77" xlink:href="#linear-gradient"/><linearGradient id="linear-gradient-3" x1="221.97" y1="441.77" x2="345.76" y2="441.77" xlink:href="#linear-gradient"/><linearGradient id="linear-gradient-4" x1="439.12" y1="441.77" x2="562.91" y2="441.77" xlink:href="#linear-gradient"/><linearGradient id="linear-gradient-5" x1="654.24" y1="441.77" x2="778.03" y2="441.77" xlink:href="#linear-gradient"/></defs><title>dialog</title><path class="cls-1" d="M952,319.83q-18.54-15.27-24.64-41.46t-6.5-95q-.37-68.79-5.16-99T894.92,34.39A87.76,87.76,0,0,0,854.41,6.11Q837.6,0,800.15,0h-21.4V60H790.6q36.3,0,48.72,10.13t15.09,35.73q1.9,14.52,1.91,89,0,82.16,18,116.74t61.91,55.59q-33.63,14.15-52,39.55t-24.46,67.83q-3.43,25.61-3.44,121.13,0,50.06-13,64.39T790.6,674.44H778.75v60h21.4q32.86,0,47.39-4.21,21.39-6.11,35.15-17.76t23.12-31q9.36-19.29,12.8-51.77,1.9-20.26,2.29-84.07t6.5-90q6.11-26.16,24.64-41.46t48-16V335.88Q970.57,335.12,952,319.83Z" transform="translate(0 0)"/><path class="cls-2" d="M220.76,674.44H209.4q-36.3,0-48.72-10.32t-15.48-36.3q-1.53-14.15-1.52-88.65,0-82.15-18.92-118.27T63.81,367.21Q99.35,350,116,327.86t23.5-63.05q4.2-26.37,4.21-126.48,0-49.68,13-64T209.4,60h11.85V0h-21.4Q167,0,152.46,3.82q-21.4,6.12-35.15,17.77T94.19,52.73q-9.36,19.49-12.8,51.59-1.92,20.25-2.29,84.06t-6.5,90.18Q66.48,304.93,48,320T0,335.88v62.29q29.42.76,48,16T72.6,455.87q6.11,26.36,6.5,95.14t5.16,99q4.77,30.18,20.82,49.87a90.93,90.93,0,0,0,40.51,28.46q16.8,6.12,54.26,6.12h20.91V883.54L351.59,674H220.76Z" transform="translate(0 0)"/><circle class="cls-3" cx="283.87" cy="441.77" r="61.9"/><circle class="cls-4" cx="501.01" cy="441.77" r="61.9"/><circle class="cls-5" cx="716.13" cy="441.77" r="61.9"/></svg>
</svg>
